# xmcd CD database file
#
# Track frame offsets:
#	150
#	25089
#	57079
#	78678
#	101755
#	124008
#	150860
#	179558
#	208249
#
# Disc length: 2947 seconds
#
# Revision: 2
# Processed by: cddbd v1.5PL3 Copyright (c) Steve Scherf et al.
# Submitted via: CDex 1.50
#
DISCID=720b8109
DTITLE=Bluemango - L'essence du fruit, la saveur du jazz
DYEAR=2004
DGENRE=Jazz
TTITLE0=Samba kwéyol
TTITLE1=Bad Mon
TTITLE2=Blue Mango
TTITLE3=Zwé Gwi
TTITLE4=Zafè moun
TTITLE5=Désandans
TTITLE6=Zaywan
TTITLE7=Man from Morne Dudon
TTITLE8=Si i pa bon
EXTD=YEAR: 2004
EXTT0=
EXTT1=
EXTT2=
EXTT3=
EXTT4=
EXTT5=
EXTT6=
EXTT7=
EXTT8=
PLAYORDER=
